<?xml version="1.0" standalone="no"?>
<!DOCTYPE svg PUBLIC "-//W3C//DTD SVG 20010904//EN"
 "http://www.w3.org/TR/2001/REC-SVG-20010904/DTD/svg10.dtd">
<svg version="1.0" xmlns="http://www.w3.org/2000/svg"
 width="641.000000pt" height="500.000000pt" viewBox="0 0 641.000000 500.000000"
 preserveAspectRatio="xMidYMid meet">
<metadata>
Created by potrace 1.13, written by Peter Selinger 2001-2015
</metadata>
<g transform="translate(0.000000,500.000000) scale(0.100000,-0.100000)"
fill="#000000" stroke="none">
<path d="M2335 3829 c-527 -63 -997 -427 -1180 -914 l-23 -60 -109 -3 -109 -3
-414 -414 -415 -415 511 0 511 0 26 -80 c139 -423 485 -766 914 -909 164 -55
239 -66 453 -66 153 0 213 4 280 19 511 111 922 474 1084 956 l25 75 818 3
818 2 415 415 415 415 -1246 0 -1246 0 -12 40 c-6 22 -36 89 -66 148 -239 477
-712 780 -1243 797 -70 2 -163 0 -207 -6z m181 -112 c10 -29 15 -32 60 -37 44
-4 47 -6 29 -17 -55 -34 -58 -39 -45 -78 7 -20 10 -38 8 -41 -3 -2 -19 7 -38
21 l-33 24 -32 -24 c-17 -14 -35 -25 -38 -25 -3 0 0 18 8 40 l14 40 -41 30
-41 30 51 0 c51 0 51 0 63 40 13 44 19 44 35 -3z m-401 -127 l30 -12 -50 -18
c-229 -80 -441 -236 -586 -432 -64 -86 -148 -246 -175 -333 l-18 -55 55 -49
54 -49 -73 -75 -73 -74 25 -38 c44 -65 32 -161 -30 -242 -22 -29 -23 -33 -7
-33 15 0 23 -21 45 -112 89 -364 367 -680 727 -826 92 -36 109 -50 86 -68 -8
-6 -12 -14 -8 -17 12 -13 -23 -7 -75 13 -388 148 -692 489 -797 895 -13 50
-27 89 -32 88 -4 -2 -33 -12 -63 -23 -110 -39 -240 -16 -322 58 -71 64 -71 67
13 144 l74 67 -18 29 c-40 69 -15 175 59 249 62 62 128 86 230 82 l67 -2 27
74 c69 188 162 333 309 480 117 117 214 186 354 255 94 46 109 48 172 24z
m911 -10 c316 -143 576 -425 690 -747 l29 -83 327 0 326 0 -26 -102 c-18 -67
-32 -102 -42 -105 -10 -3 -24 -36 -39 -96 -13 -51 -26 -98 -28 -104 -3 -7 2
-13 11 -13 20 0 20 -8 2 -73 -8 -29 -20 -71 -26 -94 l-11 -43 -236 -2 -235 -3
-27 -90 c-42 -140 -87 -235 -161 -347 -146 -220 -351 -394 -574 -487 -76 -31
-136 -49 -124 -36 4 4 0 13 -9 20 -23 17 -10 31 52 54 82 31 191 88 275 144
94 63 251 220 313 313 81 123 153 283 181 407 l6 27 -108 0 -109 0 -39 85
c-21 46 -42 84 -45 85 -4 0 -10 -15 -13 -34 -4 -19 -13 -57 -22 -85 l-15 -51
-109 0 c-61 0 -110 3 -110 8 0 4 36 145 81 315 l82 307 114 0 c62 0 113 -1
113 -2 0 -2 -7 -25 -15 -52 -8 -27 -15 -53 -15 -58 0 -6 32 18 71 51 44 39 79
61 94 61 l25 0 -25 65 c-66 177 -154 315 -285 446 -133 134 -291 235 -459 294
l-63 23 43 15 c60 21 61 21 135 -13z m-275 -134 c130 -33 228 -75 338 -146
148 -96 292 -255 370 -407 l21 -43 -980 0 c-539 0 -980 3 -980 7 0 4 19 39 42
77 175 297 460 488 800 536 103 14 281 4 389 -24z m324 -710 c50 -23 87 -57
119 -107 l16 -26 -72 -64 c-114 -100 -103 -96 -129 -50 -26 47 -67 66 -115 52
-74 -21 -124 -81 -124 -148 0 -50 14 -63 68 -63 52 0 75 11 123 57 l37 35 24
-34 c67 -90 88 -123 88 -132 -1 -17 -93 -84 -157 -114 -50 -23 -71 -27 -148
-27 -82 0 -95 3 -145 31 -38 22 -64 46 -85 79 -28 45 -30 56 -30 139 0 78 4
99 27 148 47 100 147 191 251 228 78 28 189 26 252 -4z m2391 -4 c54 -27 104
-70 104 -88 0 -7 -29 -45 -65 -83 l-66 -69 26 -37 c30 -45 33 -99 9 -168 -45
-133 -225 -210 -379 -162 -58 19 -165 103 -165 130 0 7 32 42 71 78 l71 65
-16 30 c-19 36 -21 100 -5 156 15 55 90 131 153 156 69 27 202 24 262 -8z
m-3731 6 c-10 -31 -105 -389 -105 -398 0 -6 44 -10 111 -10 100 0 110 -2 105
-17 -14 -49 -18 -77 -9 -68 6 6 88 121 182 258 l173 247 94 0 c52 0 94 -2 94
-4 0 -3 22 -141 50 -308 27 -167 50 -306 50 -310 0 -5 -52 -8 -115 -8 l-114 0
-6 38 c-4 20 -7 44 -8 52 -2 12 -20 16 -79 18 l-76 3 -39 -55 -38 -56 -331 0
-331 0 64 238 c35 130 73 272 84 315 l21 77 114 0 c86 0 112 -3 109 -12z
m3112 -3 c99 -29 137 -108 108 -219 -19 -72 -44 -114 -91 -155 l-35 -31 37
-83 c20 -45 40 -92 45 -104 l9 -23 -129 0 -129 0 -33 80 c-19 44 -37 80 -41
80 -4 0 -12 -17 -17 -37 -5 -21 -15 -57 -21 -80 l-11 -43 -114 0 -114 0 14 48
c11 38 108 398 146 545 l10 37 158 0 c111 0 172 -4 208 -15z m-1337 -722 c-1
-21 -95 -193 -139 -251 -98 -133 -247 -260 -386 -329 -172 -87 -319 -117 -525
-110 -185 6 -278 29 -435 106 -228 112 -382 267 -499 498 -20 40 -36 77 -36
83 0 7 327 10 1010 10 556 0 1010 -3 1010 -7z m-995 -823 c6 -28 10 -30 53
-30 44 -1 46 -2 27 -16 -11 -8 -27 -19 -35 -24 -12 -7 -13 -16 -4 -49 6 -23
10 -41 10 -41 -1 0 -17 11 -35 25 l-34 24 -35 -27 c-29 -22 -35 -23 -29 -9 21
55 19 65 -13 89 l-32 23 43 5 c39 4 44 9 53 37 10 38 22 35 31 -7z"/>
<path d="M1091 2699 c-90 -28 -145 -91 -158 -184 -5 -41 -3 -47 26 -74 17 -16
48 -35 69 -41 109 -33 122 -41 122 -69 0 -77 -107 -89 -190 -22 l-37 30 -42
-43 -41 -42 27 -26 c49 -45 92 -61 168 -61 108 0 189 46 226 128 47 102 9 158
-134 199 -61 18 -73 31 -63 69 12 50 88 60 158 23 l46 -24 37 38 c21 21 34 43
30 49 -26 43 -171 72 -244 50z"/>
<path d="M3843 2668 c-26 -22 -57 -49 -68 -59 -21 -19 -178 -151 -184 -155 -1
-2 23 -63 56 -136 51 -117 62 -133 84 -136 25 -3 27 1 62 135 20 76 52 195 71
266 19 70 33 127 31 127 -2 0 -25 -19 -52 -42z"/>
<path d="M3334 2685 c-4 -9 -37 -128 -73 -265 l-68 -250 58 0 58 0 10 38 c27
103 34 118 67 146 l34 28 50 -106 49 -106 67 0 c49 0 65 3 61 13 -3 6 -30 69
-61 138 -31 70 -56 133 -55 140 0 8 59 64 130 124 l131 110 -67 3 -66 3 -117
-98 c-168 -142 -155 -138 -126 -31 14 51 27 101 30 111 5 15 -2 17 -51 17 -41
0 -57 -4 -61 -15z"/>
<path d="M3946 2683 c-3 -10 -32 -121 -66 -248 -34 -126 -63 -238 -66 -247 -5
-17 9 -18 189 -18 l195 0 11 44 c6 25 11 47 11 50 0 3 -61 6 -136 6 -122 0
-135 2 -130 16 4 9 11 36 17 60 l11 44 118 0 118 0 11 31 c21 59 21 59 -104
59 -63 0 -115 3 -115 8 0 4 6 30 13 57 l13 50 132 3 c146 3 137 -1 156 75 l6
27 -189 0 c-172 0 -190 -2 -195 -17z"/>
<path d="M2875 2701 c-219 -58 -357 -322 -243 -466 73 -92 253 -92 375 1 18
14 33 28 33 32 0 4 -11 20 -23 36 l-23 29 -46 -27 c-139 -81 -266 -8 -228 130
40 143 229 216 309 120 19 -23 26 -20 71 20 37 34 38 37 25 58 -36 55 -165 90
-250 67z"/>
<path d="M5237 2694 c-85 -27 -147 -109 -147 -197 0 -44 45 -82 127 -106 39
-12 76 -28 83 -36 21 -25 8 -59 -32 -78 -46 -23 -102 -11 -151 33 l-34 29 -43
-44 c-50 -51 -49 -56 32 -100 102 -56 249 -31 318 54 31 36 50 87 50 130 0 40
-58 87 -138 110 -76 23 -95 41 -81 79 18 46 108 53 174 12 l31 -19 38 38 c21
22 35 44 31 50 -3 6 -25 21 -48 32 -54 28 -147 34 -210 13z"/>
<path d="M1512 2543 c-23 -87 -55 -206 -71 -265 l-29 -108 169 0 c189 0 174
-6 193 73 l6 27 -110 0 c-77 0 -110 4 -110 12 0 10 94 371 105 406 3 9 -12 12
-54 12 l-58 0 -41 -157z"/>
<path d="M2041 2441 c-99 -143 -181 -262 -181 -265 0 -3 26 -6 58 -5 l57 0 42
60 43 59 104 0 c63 0 107 -4 111 -11 4 -5 10 -31 13 -57 l7 -47 63 -3 64 -3
-6 28 c-3 15 -22 125 -41 243 -19 118 -37 225 -40 238 -5 19 -12 22 -59 22
l-53 0 -182 -259z"/>
<path d="M4487 2564 c-20 -77 -52 -196 -71 -266 l-34 -128 57 0 58 0 22 85 23
85 42 0 43 0 35 -82 35 -83 71 -3 72 -3 -36 83 c-20 46 -38 88 -41 95 -2 6 13
21 35 32 65 33 112 119 112 203 0 91 -39 110 -241 116 l-145 4 -37 -138z m279
26 c24 -10 26 -14 21 -53 -4 -30 -15 -50 -37 -69 -27 -25 -38 -28 -106 -28
-67 0 -75 2 -70 18 2 9 12 45 22 80 l17 62 63 0 c34 0 75 -5 90 -10z"/>
</g>
</svg>
